<?xml version="1.0" encoding="utf-8"?>
<!-- Generator: Adobe Illustrator 19.0.0, SVG Export Plug-In . SVG Version: 6.00 Build 0)  -->
<svg version="1.1" id="Layer_1" xmlns="http://www.w3.org/2000/svg" xmlns:xlink="http://www.w3.org/1999/xlink" x="0px" y="0px"
	 viewBox="116 -78 1024 768" style="enable-background:new 116 -78 1024 768;" xml:space="preserve">
<style type="text/css">
	.st0{fill:#FFFFFF;}
	.st1{font-family:'Arial-BoldMT';}
	.st2{font-size:26px;}
	.st3{letter-spacing:4;}
	.st4{letter-spacing:2;}
	.st5{letter-spacing:3;}
</style>
<title>FLOATED3 copy</title>
<path class="st0" d="M338.3,224.9c3-14,8.3-24.6,16-31.8c7.7-7.2,17.5-10.8,29.5-10.8c8.8,0.1,17.6,1.2,26.1,3.4
	c9.3,2.3,22.6,6.9,40.1,13.9l-27.5,130c-0.3,1.5-0.6,2.9-0.8,4.1c-0.2,1.3-0.3,2.6-0.3,3.9c0,3.3,0.8,5.7,2.4,7.1
	c1.6,1.4,4.2,2.1,7.9,2.1c4.7,0,9.1-2,13.3-6.1c4.4-4.4,7.5-9.9,9.3-15.9h10.5c-5.3,15.2-12.5,26.7-21.5,34.5
	c-8.5,7.6-19.6,11.8-31,11.8c-8.3,0-14.9-2.6-19.6-7.9c-4.7-5.2-7.1-12.6-7.1-22.1c0-2.5,0.2-4.9,0.5-7.4c0.3-2.7,0.8-5.7,1.5-8.9
	l26-122.8c-3.3-1.4-6.8-2.3-10.4-2.9c-3.3-0.7-6.7-1-10.1-1.1c-4.1,0-8,1.8-10.6,5c-2.9,3.3-5,8.3-6.4,14.8l-5.5,26.8h23.3l-2,10
	h-23.3l-28.5,135c-3,14-8.3,24.6-16,31.8c-7.7,7.2-17.5,10.8-29.5,10.8c-7.7,0.2-15.2-2.6-20.9-7.8c-5.6-4.8-8.7-11.9-8.6-19.3
	c0-8.7,2.9-15.8,8.6-21.3s17.3-10.9,34.6-16.3L338.3,224.9z M306.6,375.9c-9.8,3.3-16.9,7-21.3,11.1c-4.2,3.7-6.5,9-6.5,14.6
	c0,2,1,3.9,3.1,5.6c1.9,1.7,4.3,2.6,6.9,2.6c3.3,0,6.3-1.7,8.9-5.1s4.5-8.2,5.9-14.4L306.6,375.9z"/>
<path class="st0" d="M445.8,331.1c0.4-20.8,6.4-41,17.3-58.8c6.2-9.8,13.6-17.3,22.3-22.4c8.8-5.1,18.8-7.8,29-7.6
	c10.7,0,18.7,3.3,24,10s8,16.7,8,30c0.4,0.2,0.7,0.3,1.1,0.4c0.5,0.1,1.1,0.1,1.6,0.1c5.2,0,11.3-1.4,18.5-4.3
	c7.1-2.8,13.8-6.4,20-10.8l2.3,6.8c-4.7,5-10.9,9.3-18.6,13c-8.1,3.8-16.8,6.4-25.6,7.8c-2,22.5-8.5,40.7-19.5,54.5
	c-11,13.8-24.4,20.8-40.3,20.8c-13,0-22.9-3.3-29.8-10C449.2,354,445.8,344.1,445.8,331.1z M516.3,257.6c-8,0-15.5,8.1-22.6,24.3
	c-7.1,16.2-10.6,31.5-10.6,46c0,7.8,0.9,13.2,2.6,16c1.8,2.8,5.1,4.3,10.1,4.3c6.2,0,12-5,17.6-15c5.6-10,9.4-22.3,11.4-37
	c-2.1-0.3-4-1.6-5.1-3.4c-1.2-2.2-1.7-4.6-1.6-7.1c-0.1-2.9,0.6-5.7,2-8.3c1.3-2.3,3.3-4.2,5.8-5.3c-0.3-5.3-1.2-9.1-2.6-11.3
	C521.8,258.7,519.5,257.7,516.3,257.6z"/>
<path class="st0" d="M636.8,256.1v1.8l2.8-13.3h36l-18,85c-0.3,1.5-0.6,2.9-0.8,4.1c-0.2,1.3-0.3,2.6-0.3,3.9c0,3.7,0.8,6.4,2.5,8.1
	c1.7,1.8,4.3,2.6,7.8,2.6c4.3,0,8.3-2,11.8-6.1c3.5-4.1,6.3-9.9,8.5-17.4h10.5c-5.3,15.3-12.3,26.9-20.8,34.6
	c-8,7.5-18.5,11.7-29.5,11.6c-7.2,0-12.9-2-17.1-6c-4.2-4-6.7-9.7-7.4-17c-5.2,7.7-10.9,13.4-17.1,17.3c-6,3.8-13,5.8-20.1,5.8
	c-10.3,0-18.5-3.5-24.4-10.5c-5.9-7-8.9-16.9-8.9-29.8c0.1-9.9,1.5-19.7,4.3-29.3c2.7-9.7,6.6-19.1,11.8-27.8
	c6.2-9.8,13.3-17.4,21.5-22.6c8-5.2,17.3-7.9,26.8-7.9c6.5,0,11.5,1.1,15,3.4C634.9,248.7,636.9,252.3,636.8,256.1z M634.5,268.4
	c0-2.5-1-4.9-2.8-6.6c-2-2-4.7-3-7.5-2.9c-9.2,0-17.3,7.7-24.4,23c-7.1,15.3-10.6,30.5-10.6,45.5c0,6.5,0.9,11.4,2.8,14.6
	c1.8,3.3,5.1,4.9,9.8,4.9c4.3,0,8.5-2.1,12.6-6.3c4.2-4.3,7-9.8,8.1-15.8L634.5,268.4z"/>
<path class="st0" d="M691,244.6h8.3l7.5-34.5l37-5l-8.5,39.5h15l-2,10h-15l-16,75c-0.3,1.5-0.6,2.9-0.8,4.1
	c-0.2,1.3-0.3,2.6-0.3,3.9c0,3.3,0.8,5.7,2.4,7.1c1.6,1.4,4.2,2.1,7.9,2.1c4.7,0,9.1-2,13.3-6.1c4.4-4.4,7.5-9.9,9.2-15.9h10.5
	c-5.3,15.2-12.5,26.7-21.5,34.5c-8.5,7.6-19.6,11.8-31,11.8c-8.3,0-14.9-2.6-19.6-7.9c-4.7-5.2-7.1-12.6-7.1-22.1
	c0-2.5,0.2-4.9,0.5-7.4c0.3-2.7,0.8-5.7,1.5-8.9l15-70.3H689L691,244.6z"/>
<path class="st0" d="M834.5,266.4c0,13.8-5.7,25.9-17,36.1c-11.1,10.2-25.5,16.1-40.5,16.6c-0.2,2.8-0.3,5-0.4,6.4
	c-0.1,1.4-0.1,2.6-0.1,3.6c0,7.7,1.3,13.1,3.9,16.3c2.6,3.2,7.3,4.8,14.1,4.8c7.5,0.1,15-1.8,21.6-5.4c6.6-3.6,14.1-10.2,22.6-19.9
	h8.5c-9.7,15.7-20.2,27.3-31.5,34.9c-11,7.5-24,11.4-37.3,11.4c-12.8,0-22.5-3.3-29.1-10c-6.6-6.7-9.9-16.6-9.9-29.8
	c0.1-10.2,1.6-20.4,4.5-30.3c2.7-10,6.8-19.6,12-28.5c6.2-10,13.5-17.5,22.1-22.6c8.7-5.1,18.7-7.8,28.8-7.6c9.2,0,16,2,20.6,5.9
	C832.2,252.2,834.5,258.2,834.5,266.4z M809,255.6c-5.7,0-11.4,5-17.1,15.1s-10,22.2-12.9,36.4c9.7-0.7,18.1-5.1,25.4-13.4
	c7.3-8.2,10.9-17.5,10.9-27.9c0-3.5-0.5-6.1-1.5-7.8C812.8,256.5,810.9,255.5,809,255.6z"/>
<path class="st0" d="M916.5,256.1v1l12.3-57.5l37-5l-28.8,135c-0.3,1.5-0.6,2.9-0.8,4.1c-0.2,1.3-0.3,2.6-0.3,3.9
	c0,3.3,0.8,5.7,2.4,7.1c1.6,1.4,4.2,2.1,7.9,2.1c4.3,0,8.3-1.9,11.8-5.8c3.5-3.8,6.3-9.3,8.5-16.3H977c-5.2,14.8-11.9,26-20.1,33.5
	c-8.2,7.5-18.3,11.2-30.1,11.2c-6.8,0-12.4-1.9-16.6-5.6c-4.2-3.7-6.9-9-7.9-15.9c-5,7.7-10.6,13.4-16.8,17.3
	c-6.1,3.8-13.1,5.8-20.3,5.8c-10.3,0-18.5-3.5-24.4-10.5s-8.9-16.9-8.9-29.8c0.1-9.9,1.5-19.7,4.3-29.3c2.7-9.7,6.6-19.1,11.8-27.8
	c6.2-9.8,13.3-17.4,21.5-22.6c8-5.2,17.3-7.9,26.8-7.9c6.5,0,11.5,1.1,15,3.4C914.6,248.7,916.6,252.3,916.5,256.1z M869,327.4
	c0,6.5,0.9,11.4,2.8,14.6c1.8,3.3,5.1,4.9,9.8,4.9c4.2,0,8.3-2,12.3-5.9c4.1-4.1,7-9.2,8.3-14.9v-1.3l12.3-57.3
	c-0.4-2.4-1.6-4.7-3.4-6.4c-1.9-1.6-4.4-2.5-6.9-2.4c-9.2,0-17.3,7.7-24.4,23C872.5,297.2,869,312.4,869,327.4z"/>
<polygon class="st0" points="310.4,254.6 374.9,254.6 376.9,244.7 312.4,244.7 "/>
<text transform="matrix(1 0 0 1 382.74 429.51)" class="st1 st2 st3">A</text>
<text transform="matrix(1 0 0 1 405.23 429.51)" class="st1 st2 st4">L</text>
<text transform="matrix(1 0 0 1 421.06 429.51)" class="st1 st2 st3">TERN</text>
<text transform="matrix(1 0 0 1 506.08 429.51)" class="st1 st2 st5">A</text>
<text transform="matrix(1 0 0 1 526.88 429.51)" class="st1 st2 st3">TIVE CU</text>
<text transform="matrix(1 0 0 1 659.17 429.51)" class="st1 st2 st4">L</text>
<text transform="matrix(1 0 0 1 675 429.51)" class="st1 st2 st3">TURE M</text>
<text transform="matrix(1 0 0 1 798.37 429.51)" class="st1 st2 st3">A</text>
<text transform="matrix(1 0 0 1 819.95 429.51)" class="st1 st2 st3">G</text>
<text transform="matrix(1 0 0 1 843.46 429.51)" class="st1 st2 st3">AZINE</text>
</svg>
